<mxfile host="65bd71144e">
    <diagram id="xKyu4LC2K7DmACrp5v3m" name="功能区设计流程">
        <mxGraphModel dx="1939" dy="477" grid="1" gridSize="10" guides="1" tooltips="1" connect="1" arrows="1" fold="1" page="1" pageScale="1" pageWidth="827" pageHeight="1169" math="0" shadow="0">
            <root>
                <mxCell id="0"/>
                <mxCell id="1" parent="0"/>
                <mxCell id="45" style="edgeStyle=orthogonalEdgeStyle;rounded=0;orthogonalLoop=1;jettySize=auto;html=1;entryX=-0.083;entryY=0.5;entryDx=0;entryDy=0;entryPerimeter=0;" parent="1" source="2" target="29" edge="1">
                    <mxGeometry relative="1" as="geometry">
                        <Array as="points">
                            <mxPoint x="-570" y="405"/>
                            <mxPoint x="-570" y="315"/>
                        </Array>
                    </mxGeometry>
                </mxCell>
                <mxCell id="50" style="edgeStyle=orthogonalEdgeStyle;rounded=0;orthogonalLoop=1;jettySize=auto;html=1;entryX=0;entryY=0.5;entryDx=0;entryDy=0;" parent="1" source="2" target="35" edge="1">
                    <mxGeometry relative="1" as="geometry">
                        <Array as="points">
                            <mxPoint x="-570" y="405"/>
                            <mxPoint x="-570" y="475"/>
                        </Array>
                    </mxGeometry>
                </mxCell>
                <mxCell id="2" value="CAD 户型图" style="ellipse;whiteSpace=wrap;html=1;fillColor=#008a00;strokeColor=#005700;fontColor=#ffffff;" parent="1" vertex="1">
                    <mxGeometry x="-710" y="365" width="120" height="80" as="geometry"/>
                </mxCell>
                <mxCell id="66" style="edgeStyle=orthogonalEdgeStyle;rounded=0;orthogonalLoop=1;jettySize=auto;html=1;" parent="1" source="3" edge="1">
                    <mxGeometry relative="1" as="geometry">
                        <mxPoint x="-90" y="395" as="targetPoint"/>
                    </mxGeometry>
                </mxCell>
                <mxCell id="3" value="功能区布局展示&lt;br&gt;（宏观）" style="whiteSpace=wrap;html=1;" parent="1" vertex="1">
                    <mxGeometry x="-300" y="365" width="120" height="60" as="geometry"/>
                </mxCell>
                <mxCell id="25" value="出图" style="whiteSpace=wrap;html=1;fontStyle=1;startSize=23;" parent="1" vertex="1">
                    <mxGeometry x="1640" y="364" width="120" height="60" as="geometry"/>
                </mxCell>
                <mxCell id="48" style="edgeStyle=orthogonalEdgeStyle;rounded=0;orthogonalLoop=1;jettySize=auto;html=1;entryX=0;entryY=0.5;entryDx=0;entryDy=0;fillColor=#008a00;strokeColor=#005700;shape=flexArrow;" parent="1" source="29" target="3" edge="1">
                    <mxGeometry relative="1" as="geometry"/>
                </mxCell>
                <mxCell id="29" value="功能区布局服务" style="ellipse;shape=cloud;whiteSpace=wrap;html=1;fillColor=#fa6800;strokeColor=#C73500;fontColor=#000000;" parent="1" vertex="1">
                    <mxGeometry x="-510" y="275" width="120" height="80" as="geometry"/>
                </mxCell>
                <mxCell id="49" style="edgeStyle=orthogonalEdgeStyle;rounded=0;orthogonalLoop=1;jettySize=auto;html=1;entryX=0;entryY=0.5;entryDx=0;entryDy=0;" parent="1" source="35" target="3" edge="1">
                    <mxGeometry relative="1" as="geometry"/>
                </mxCell>
                <mxCell id="35" value="设计师规划功能区" style="whiteSpace=wrap;html=1;" parent="1" vertex="1">
                    <mxGeometry x="-510" y="445" width="120" height="60" as="geometry"/>
                </mxCell>
                <mxCell id="67" style="edgeStyle=orthogonalEdgeStyle;rounded=0;orthogonalLoop=1;jettySize=auto;html=1;entryX=0.55;entryY=0.075;entryDx=0;entryDy=0;entryPerimeter=0;fillColor=#008a00;strokeColor=#005700;shape=flexArrow;" parent="1" target="29" edge="1">
                    <mxGeometry relative="1" as="geometry">
                        <mxPoint x="390" y="340" as="sourcePoint"/>
                        <Array as="points">
                            <mxPoint x="390" y="340"/>
                            <mxPoint x="390" y="210"/>
                            <mxPoint x="-444" y="210"/>
                        </Array>
                    </mxGeometry>
                </mxCell>
                <mxCell id="78" value="根据调整后的功能区再次请求计算" style="edgeLabel;html=1;align=center;verticalAlign=middle;resizable=0;points=[];" parent="67" vertex="1" connectable="0">
                    <mxGeometry x="-0.0789" y="3" relative="1" as="geometry">
                        <mxPoint x="-44" y="-23" as="offset"/>
                    </mxGeometry>
                </mxCell>
                <mxCell id="128" value="是" style="edgeLabel;html=1;align=center;verticalAlign=middle;resizable=0;points=[];" parent="67" vertex="1" connectable="0">
                    <mxGeometry x="-0.9222" y="-1" relative="1" as="geometry">
                        <mxPoint x="19" as="offset"/>
                    </mxGeometry>
                </mxCell>
                <mxCell id="125" style="edgeStyle=orthogonalEdgeStyle;rounded=0;orthogonalLoop=1;jettySize=auto;html=1;entryX=0;entryY=0.5;entryDx=0;entryDy=0;exitX=1;exitY=0.5;exitDx=0;exitDy=0;" parent="1" source="145" target="124" edge="1">
                    <mxGeometry relative="1" as="geometry">
                        <mxPoint x="270" y="382" as="sourcePoint"/>
                    </mxGeometry>
                </mxCell>
                <mxCell id="72" style="edgeStyle=orthogonalEdgeStyle;rounded=0;orthogonalLoop=1;jettySize=auto;html=1;entryX=0.585;entryY=0.023;entryDx=0;entryDy=0;entryPerimeter=0;" parent="1" source="69" target="94" edge="1">
                    <mxGeometry relative="1" as="geometry">
                        <mxPoint x="770" y="392" as="targetPoint"/>
                    </mxGeometry>
                </mxCell>
                <mxCell id="69" value="&lt;span style=&quot;font-weight: 700&quot;&gt;家具布局服务&lt;/span&gt;" style="ellipse;shape=cloud;whiteSpace=wrap;html=1;fillColor=#fa6800;strokeColor=#C73500;fontColor=#000000;" parent="1" vertex="1">
                    <mxGeometry x="530" y="354" width="120" height="80" as="geometry"/>
                </mxCell>
                <mxCell id="115" style="edgeStyle=orthogonalEdgeStyle;rounded=0;orthogonalLoop=1;jettySize=auto;html=1;entryX=0;entryY=0.5;entryDx=0;entryDy=0;" parent="1" source="71" target="80" edge="1">
                    <mxGeometry relative="1" as="geometry"/>
                </mxCell>
                <mxCell id="71" value="家具布局呈现（微观）" style="swimlane;" parent="1" vertex="1">
                    <mxGeometry x="770" y="294" width="200" height="200" as="geometry"/>
                </mxCell>
                <mxCell id="92" value="" style="verticalLabelPosition=bottom;html=1;verticalAlign=top;align=center;shape=mxgraph.floorplan.office_chair;shadow=0;" parent="71" vertex="1">
                    <mxGeometry x="50" y="33" width="40" height="43" as="geometry"/>
                </mxCell>
                <mxCell id="93" value="" style="verticalLabelPosition=bottom;html=1;verticalAlign=top;align=center;shape=mxgraph.floorplan.office_chair;shadow=0;direction=west;" parent="71" vertex="1">
                    <mxGeometry x="50" y="130" width="40" height="43" as="geometry"/>
                </mxCell>
                <mxCell id="94" value="" style="verticalLabelPosition=bottom;html=1;verticalAlign=top;align=center;shape=mxgraph.floorplan.office_chair;shadow=0;direction=north;" parent="71" vertex="1">
                    <mxGeometry y="83" width="43" height="40" as="geometry"/>
                </mxCell>
                <mxCell id="95" value="" style="verticalLabelPosition=bottom;html=1;verticalAlign=top;align=center;shape=mxgraph.floorplan.office_chair;shadow=0;direction=south" parent="71" vertex="1">
                    <mxGeometry x="157" y="83" width="43" height="40" as="geometry"/>
                </mxCell>
                <mxCell id="96" value="" style="verticalLabelPosition=bottom;html=1;verticalAlign=top;align=center;shape=mxgraph.floorplan.office_chair;shadow=0;" parent="71" vertex="1">
                    <mxGeometry x="110" y="33" width="40" height="43" as="geometry"/>
                </mxCell>
                <mxCell id="97" value="" style="verticalLabelPosition=bottom;html=1;verticalAlign=top;align=center;shape=mxgraph.floorplan.office_chair;shadow=0;direction=west;" parent="71" vertex="1">
                    <mxGeometry x="110" y="130" width="40" height="43" as="geometry"/>
                </mxCell>
                <mxCell id="98" value="" style="shape=rect;shadow=0;" parent="71" vertex="1">
                    <mxGeometry x="20" y="53" width="160" height="100" as="geometry"/>
                </mxCell>
                <mxCell id="111" style="edgeStyle=orthogonalEdgeStyle;rounded=0;orthogonalLoop=1;jettySize=auto;html=1;entryX=0.502;entryY=0.059;entryDx=0;entryDy=0;entryPerimeter=0;shape=flexArrow;fillColor=#008a00;strokeColor=#005700;exitX=0.5;exitY=0;exitDx=0;exitDy=0;" parent="1" source="117" target="69" edge="1">
                    <mxGeometry relative="1" as="geometry">
                        <Array as="points">
                            <mxPoint x="1530" y="210"/>
                            <mxPoint x="590" y="210"/>
                        </Array>
                    </mxGeometry>
                </mxCell>
                <mxCell id="112" value="根据调整后的家具再次进行家具布局计算" style="edgeLabel;html=1;align=center;verticalAlign=middle;resizable=0;points=[];" parent="111" vertex="1" connectable="0">
                    <mxGeometry x="-0.0313" y="1" relative="1" as="geometry">
                        <mxPoint as="offset"/>
                    </mxGeometry>
                </mxCell>
                <mxCell id="121" value="是" style="edgeLabel;html=1;align=center;verticalAlign=middle;resizable=0;points=[];" parent="111" vertex="1" connectable="0">
                    <mxGeometry x="-0.8796" y="-2" relative="1" as="geometry">
                        <mxPoint x="8" as="offset"/>
                    </mxGeometry>
                </mxCell>
                <mxCell id="144" style="edgeStyle=orthogonalEdgeStyle;rounded=0;orthogonalLoop=1;jettySize=auto;html=1;entryX=0;entryY=0.5;entryDx=0;entryDy=0;" parent="1" source="80" target="117" edge="1">
                    <mxGeometry relative="1" as="geometry"/>
                </mxCell>
                <mxCell id="80" value="家具布局调整（微观）" style="swimlane;" parent="1" vertex="1">
                    <mxGeometry x="1090" y="294" width="310" height="200" as="geometry"/>
                </mxCell>
                <mxCell id="137" value="" style="verticalLabelPosition=bottom;html=1;verticalAlign=top;align=center;shape=mxgraph.floorplan.chair;shadow=0;fillColor=none;" parent="80" vertex="1">
                    <mxGeometry x="110" y="40" width="40" height="52" as="geometry"/>
                </mxCell>
                <mxCell id="138" value="" style="verticalLabelPosition=bottom;html=1;verticalAlign=top;align=center;shape=mxgraph.floorplan.chair;shadow=0;direction=west;fillColor=none;" parent="80" vertex="1">
                    <mxGeometry x="110" y="128" width="40" height="52" as="geometry"/>
                </mxCell>
                <mxCell id="139" value="" style="verticalLabelPosition=bottom;html=1;verticalAlign=top;align=center;shape=mxgraph.floorplan.chair;shadow=0;direction=north;fillColor=none;" parent="80" vertex="1">
                    <mxGeometry x="60" y="90" width="52" height="40" as="geometry"/>
                </mxCell>
                <mxCell id="140" value="" style="verticalLabelPosition=bottom;html=1;verticalAlign=top;align=center;shape=mxgraph.floorplan.chair;shadow=0;direction=south;fillColor=none;" parent="80" vertex="1">
                    <mxGeometry x="208" y="90" width="52" height="40" as="geometry"/>
                </mxCell>
                <mxCell id="141" value="" style="verticalLabelPosition=bottom;html=1;verticalAlign=top;align=center;shape=mxgraph.floorplan.chair;shadow=0;fillColor=none;" parent="80" vertex="1">
                    <mxGeometry x="170" y="40" width="40" height="52" as="geometry"/>
                </mxCell>
                <mxCell id="142" value="" style="verticalLabelPosition=bottom;html=1;verticalAlign=top;align=center;shape=mxgraph.floorplan.chair;shadow=0;direction=west;fillColor=none;" parent="80" vertex="1">
                    <mxGeometry x="170" y="128" width="40" height="52" as="geometry"/>
                </mxCell>
                <mxCell id="143" value="" style="shape=ellipse;shadow=0;fillColor=none;" parent="80" vertex="1">
                    <mxGeometry x="80" y="60" width="160" height="100" as="geometry"/>
                </mxCell>
                <mxCell id="135" style="edgeStyle=orthogonalEdgeStyle;rounded=0;orthogonalLoop=1;jettySize=auto;html=1;entryX=0;entryY=0.5;entryDx=0;entryDy=0;" parent="1" source="117" target="25" edge="1">
                    <mxGeometry relative="1" as="geometry"/>
                </mxCell>
                <mxCell id="117" value="是否再次布局" style="rhombus;whiteSpace=wrap;html=1;shadow=0;" parent="1" vertex="1">
                    <mxGeometry x="1490" y="354" width="80" height="80" as="geometry"/>
                </mxCell>
                <mxCell id="127" style="edgeStyle=orthogonalEdgeStyle;rounded=0;orthogonalLoop=1;jettySize=auto;html=1;" parent="1" source="124" target="69" edge="1">
                    <mxGeometry relative="1" as="geometry"/>
                </mxCell>
                <mxCell id="124" value="是否再次布局" style="rhombus;whiteSpace=wrap;html=1;" parent="1" vertex="1">
                    <mxGeometry x="350" y="355" width="80" height="80" as="geometry"/>
                </mxCell>
                <mxCell id="130" value="否" style="text;html=1;strokeColor=none;fillColor=none;align=center;verticalAlign=middle;whiteSpace=wrap;rounded=0;" parent="1" vertex="1">
                    <mxGeometry x="470" y="362" width="40" height="20" as="geometry"/>
                </mxCell>
                <mxCell id="136" value="否" style="text;html=1;strokeColor=none;fillColor=none;align=center;verticalAlign=middle;whiteSpace=wrap;rounded=0;" parent="1" vertex="1">
                    <mxGeometry x="1580" y="365" width="40" height="20" as="geometry"/>
                </mxCell>
                <mxCell id="145" value="功能区布局调整（中观）" style="swimlane;fillColor=none;" parent="1" vertex="1">
                    <mxGeometry x="-90" y="295" width="260" height="200" as="geometry"/>
                </mxCell>
                <mxCell id="148" value="" style="verticalLabelPosition=bottom;html=1;verticalAlign=top;align=center;shape=mxgraph.floorplan.elevator;fillColor=none;" parent="145" vertex="1">
                    <mxGeometry x="40" y="45" width="80" height="60" as="geometry"/>
                </mxCell>
                <mxCell id="150" value="" style="verticalLabelPosition=bottom;html=1;verticalAlign=top;align=center;shape=mxgraph.floorplan.elevator;fillColor=none;" parent="145" vertex="1">
                    <mxGeometry x="40" y="115" width="80" height="60" as="geometry"/>
                </mxCell>
                <mxCell id="149" value="" style="verticalLabelPosition=bottom;html=1;verticalAlign=top;align=center;shape=mxgraph.floorplan.elevator;fillColor=none;" parent="145" vertex="1">
                    <mxGeometry x="130" y="45" width="80" height="60" as="geometry"/>
                </mxCell>
                <mxCell id="151" value="" style="verticalLabelPosition=bottom;html=1;verticalAlign=top;align=center;shape=mxgraph.floorplan.elevator;fillColor=none;" parent="145" vertex="1">
                    <mxGeometry x="130" y="115" width="80" height="60" as="geometry"/>
                </mxCell>
            </root>
        </mxGraphModel>
    </diagram>
    <diagram id="9D4O9t_t67vTku4e8NWg" name="Page-2">
        <mxGraphModel dx="1112" dy="595" grid="1" gridSize="10" guides="1" tooltips="1" connect="1" arrows="1" fold="1" page="1" pageScale="1" pageWidth="827" pageHeight="1169" math="0" shadow="0">
            <root>
                <mxCell id="Zg-76G46qRlVFNl99UCE-0"/>
                <mxCell id="Zg-76G46qRlVFNl99UCE-1" parent="Zg-76G46qRlVFNl99UCE-0"/>
                <mxCell id="Zg-76G46qRlVFNl99UCE-125" value="功能区E（智能）" style="rounded=0;whiteSpace=wrap;html=1;fillColor=#d80073;strokeColor=#A50040;fontColor=#ffffff;" vertex="1" parent="Zg-76G46qRlVFNl99UCE-1">
                    <mxGeometry x="120" y="385" width="180" height="180" as="geometry"/>
                </mxCell>
                <mxCell id="Zg-76G46qRlVFNl99UCE-34" value="功能区F（设计师）" style="rounded=0;whiteSpace=wrap;html=1;fillColor=#e3c800;strokeColor=#B09500;fontColor=#000000;" vertex="1" parent="Zg-76G46qRlVFNl99UCE-1">
                    <mxGeometry x="530" y="220" width="170" height="100" as="geometry"/>
                </mxCell>
                <mxCell id="Zg-76G46qRlVFNl99UCE-26" value="功能区C（默认）" style="rounded=0;whiteSpace=wrap;html=1;fillColor=#1ba1e2;strokeColor=#006EAF;fontColor=#ffffff;" vertex="1" parent="Zg-76G46qRlVFNl99UCE-1">
                    <mxGeometry x="530" y="380" width="170" height="190" as="geometry"/>
                </mxCell>
                <mxCell id="Zg-76G46qRlVFNl99UCE-32" value="" style="verticalLabelPosition=bottom;verticalAlign=top;html=1;shape=mxgraph.basic.polygon;polyCoords=[[0.29,0],[0.29,0.63],[1,0.63],[1,1],[0.69,1],[0,1],[0,0.75],[0,0]];polyline=0;fillColor=#fa6800;strokeColor=#C73500;fontColor=#000000;" vertex="1" parent="Zg-76G46qRlVFNl99UCE-1">
                    <mxGeometry x="120" y="220" width="580" height="160" as="geometry"/>
                </mxCell>
                <mxCell id="Zg-76G46qRlVFNl99UCE-31" value="功能区E（智能）" style="rounded=0;whiteSpace=wrap;html=1;fillColor=#d80073;strokeColor=#A50040;fontColor=#ffffff;" vertex="1" parent="Zg-76G46qRlVFNl99UCE-1">
                    <mxGeometry x="120" y="385" width="180" height="180" as="geometry"/>
                </mxCell>
                <mxCell id="Zg-76G46qRlVFNl99UCE-27" value="功能区D（默认）" style="rounded=0;whiteSpace=wrap;html=1;fillColor=#6a00ff;strokeColor=#3700CC;fontColor=#ffffff;" vertex="1" parent="Zg-76G46qRlVFNl99UCE-1">
                    <mxGeometry x="310" y="380" width="210" height="190" as="geometry"/>
                </mxCell>
                <mxCell id="Zg-76G46qRlVFNl99UCE-25" value="功能区B（默认）" style="rounded=0;whiteSpace=wrap;html=1;fillColor=#008a00;strokeColor=#005700;fontColor=#ffffff;" vertex="1" parent="Zg-76G46qRlVFNl99UCE-1">
                    <mxGeometry x="390" y="220" width="130" height="100" as="geometry"/>
                </mxCell>
                <mxCell id="Zg-76G46qRlVFNl99UCE-24" value="功能区A（默认）" style="rounded=0;whiteSpace=wrap;html=1;fillColor=#60a917;strokeColor=#2D7600;fontColor=#ffffff;" vertex="1" parent="Zg-76G46qRlVFNl99UCE-1">
                    <mxGeometry x="254" y="220" width="126" height="100" as="geometry"/>
                </mxCell>
                <mxCell id="Zg-76G46qRlVFNl99UCE-2" value="" style="verticalLabelPosition=bottom;html=1;verticalAlign=top;align=center;shape=mxgraph.floorplan.room;fillColor=#000000;" vertex="1" parent="Zg-76G46qRlVFNl99UCE-1">
                    <mxGeometry x="110" y="210" width="600" height="370" as="geometry"/>
                </mxCell>
                <mxCell id="Zg-76G46qRlVFNl99UCE-3" value="" style="verticalLabelPosition=bottom;html=1;verticalAlign=top;align=center;shape=mxgraph.floorplan.doorDouble;aspect=fixed;" vertex="1" parent="Zg-76G46qRlVFNl99UCE-1">
                    <mxGeometry x="150" y="210" width="56.47" height="30" as="geometry"/>
                </mxCell>
                <mxCell id="Zg-76G46qRlVFNl99UCE-4" value="" style="verticalLabelPosition=bottom;html=1;verticalAlign=top;align=center;shape=mxgraph.floorplan.wall;fillColor=#000000;direction=south;" vertex="1" parent="Zg-76G46qRlVFNl99UCE-1">
                    <mxGeometry x="300" y="380" width="10" height="190" as="geometry"/>
                </mxCell>
                <mxCell id="Zg-76G46qRlVFNl99UCE-13" value="" style="verticalLabelPosition=bottom;html=1;verticalAlign=top;align=center;shape=mxgraph.floorplan.wall;fillColor=#000000;direction=south;" vertex="1" parent="Zg-76G46qRlVFNl99UCE-1">
                    <mxGeometry x="244" y="220" width="10" height="100" as="geometry"/>
                </mxCell>
                <mxCell id="Zg-76G46qRlVFNl99UCE-14" value="" style="verticalLabelPosition=bottom;html=1;verticalAlign=top;align=center;shape=mxgraph.floorplan.wall;fillColor=#000000;direction=south;" vertex="1" parent="Zg-76G46qRlVFNl99UCE-1">
                    <mxGeometry x="380" y="220" width="10" height="100" as="geometry"/>
                </mxCell>
                <mxCell id="Zg-76G46qRlVFNl99UCE-15" value="" style="verticalLabelPosition=bottom;html=1;verticalAlign=top;align=center;shape=mxgraph.floorplan.wallCorner;fillColor=#000000;direction=south;" vertex="1" parent="Zg-76G46qRlVFNl99UCE-1">
                    <mxGeometry x="360" y="380" width="170" height="190" as="geometry"/>
                </mxCell>
                <mxCell id="Zg-76G46qRlVFNl99UCE-16" value="" style="verticalLabelPosition=bottom;html=1;verticalAlign=top;align=center;shape=mxgraph.floorplan.doorLeft;aspect=fixed;" vertex="1" parent="Zg-76G46qRlVFNl99UCE-1">
                    <mxGeometry x="310" y="380" width="47.06" height="50" as="geometry"/>
                </mxCell>
                <mxCell id="Zg-76G46qRlVFNl99UCE-17" value="" style="verticalLabelPosition=bottom;html=1;verticalAlign=top;align=center;shape=mxgraph.floorplan.wall;fillColor=#000000;direction=south;" vertex="1" parent="Zg-76G46qRlVFNl99UCE-1">
                    <mxGeometry x="520" y="220" width="10" height="100" as="geometry"/>
                </mxCell>
                <mxCell id="Zg-76G46qRlVFNl99UCE-18" value="" style="verticalLabelPosition=bottom;html=1;verticalAlign=top;align=center;shape=mxgraph.floorplan.doorRight;aspect=fixed;rotation=-90;" vertex="1" parent="Zg-76G46qRlVFNl99UCE-1">
                    <mxGeometry x="525" y="320" width="56.47" height="60" as="geometry"/>
                </mxCell>
                <mxCell id="Zg-76G46qRlVFNl99UCE-21" value="" style="verticalLabelPosition=bottom;html=1;verticalAlign=top;align=center;shape=mxgraph.floorplan.windowGlider;dx=0.25;" vertex="1" parent="Zg-76G46qRlVFNl99UCE-1">
                    <mxGeometry x="254" y="310" width="126" height="10" as="geometry"/>
                </mxCell>
                <mxCell id="Zg-76G46qRlVFNl99UCE-22" value="" style="verticalLabelPosition=bottom;html=1;verticalAlign=top;align=center;shape=mxgraph.floorplan.doorDoublePocket;dx=0.25;" vertex="1" parent="Zg-76G46qRlVFNl99UCE-1">
                    <mxGeometry x="393" y="310" width="127" height="10" as="geometry"/>
                </mxCell>
                <mxCell id="Zg-76G46qRlVFNl99UCE-33" value="过道（智能）" style="text;html=1;strokeColor=none;fillColor=none;align=center;verticalAlign=middle;whiteSpace=wrap;rounded=0;" vertex="1" parent="Zg-76G46qRlVFNl99UCE-1">
                    <mxGeometry x="130" y="295" width="100" height="10" as="geometry"/>
                </mxCell>
                <mxCell id="Zg-76G46qRlVFNl99UCE-49" value="" style="verticalLabelPosition=bottom;html=1;verticalAlign=top;align=center;shape=mxgraph.floorplan.chair;shadow=0;" vertex="1" parent="Zg-76G46qRlVFNl99UCE-1">
                    <mxGeometry x="363" y="430" width="40" height="52" as="geometry"/>
                </mxCell>
                <mxCell id="Zg-76G46qRlVFNl99UCE-50" value="" style="verticalLabelPosition=bottom;html=1;verticalAlign=top;align=center;shape=mxgraph.floorplan.chair;shadow=0;direction=west;" vertex="1" parent="Zg-76G46qRlVFNl99UCE-1">
                    <mxGeometry x="365" y="507" width="40" height="52" as="geometry"/>
                </mxCell>
                <mxCell id="Zg-76G46qRlVFNl99UCE-51" value="" style="verticalLabelPosition=bottom;html=1;verticalAlign=top;align=center;shape=mxgraph.floorplan.chair;shadow=0;direction=north;" vertex="1" parent="Zg-76G46qRlVFNl99UCE-1">
                    <mxGeometry x="313" y="480" width="52" height="40" as="geometry"/>
                </mxCell>
                <mxCell id="Zg-76G46qRlVFNl99UCE-52" value="" style="verticalLabelPosition=bottom;html=1;verticalAlign=top;align=center;shape=mxgraph.floorplan.chair;shadow=0;direction=south" vertex="1" parent="Zg-76G46qRlVFNl99UCE-1">
                    <mxGeometry x="460" y="480" width="52" height="40" as="geometry"/>
                </mxCell>
                <mxCell id="Zg-76G46qRlVFNl99UCE-53" value="" style="verticalLabelPosition=bottom;html=1;verticalAlign=top;align=center;shape=mxgraph.floorplan.chair;shadow=0;" vertex="1" parent="Zg-76G46qRlVFNl99UCE-1">
                    <mxGeometry x="425" y="430" width="40" height="52" as="geometry"/>
                </mxCell>
                <mxCell id="Zg-76G46qRlVFNl99UCE-54" value="" style="verticalLabelPosition=bottom;html=1;verticalAlign=top;align=center;shape=mxgraph.floorplan.chair;shadow=0;direction=west;" vertex="1" parent="Zg-76G46qRlVFNl99UCE-1">
                    <mxGeometry x="425" y="507" width="40" height="52" as="geometry"/>
                </mxCell>
                <mxCell id="Zg-76G46qRlVFNl99UCE-55" value="" style="shape=rect;shadow=0;" vertex="1" parent="Zg-76G46qRlVFNl99UCE-1">
                    <mxGeometry x="346.5" y="460" width="127" height="70" as="geometry"/>
                </mxCell>
                <mxCell id="Zg-76G46qRlVFNl99UCE-56" value="" style="verticalLabelPosition=bottom;html=1;verticalAlign=top;align=center;shape=mxgraph.floorplan.office_chair;shadow=0;" vertex="1" parent="Zg-76G46qRlVFNl99UCE-1">
                    <mxGeometry x="290" y="235" width="40" height="43" as="geometry"/>
                </mxCell>
                <mxCell id="Zg-76G46qRlVFNl99UCE-57" value="" style="shape=rect;shadow=0;" vertex="1" parent="Zg-76G46qRlVFNl99UCE-1">
                    <mxGeometry x="270" y="255" width="80" height="50" as="geometry"/>
                </mxCell>
                <mxCell id="Zg-76G46qRlVFNl99UCE-58" value="" style="verticalLabelPosition=bottom;html=1;verticalAlign=top;align=center;shape=mxgraph.floorplan.workstation;shadow=0;flipV=1;" vertex="1" parent="Zg-76G46qRlVFNl99UCE-1">
                    <mxGeometry x="285" y="265" width="50" height="40" as="geometry"/>
                </mxCell>
                <mxCell id="Zg-76G46qRlVFNl99UCE-59" value="" style="verticalLabelPosition=bottom;html=1;verticalAlign=top;align=center;shape=mxgraph.floorplan.office_chair;shadow=0;" vertex="1" parent="Zg-76G46qRlVFNl99UCE-1">
                    <mxGeometry x="595" y="410" width="40" height="43" as="geometry"/>
                </mxCell>
                <mxCell id="Zg-76G46qRlVFNl99UCE-60" value="" style="verticalLabelPosition=bottom;html=1;verticalAlign=top;align=center;shape=mxgraph.floorplan.office_chair;shadow=0;direction=west;" vertex="1" parent="Zg-76G46qRlVFNl99UCE-1">
                    <mxGeometry x="595" y="507" width="40" height="43" as="geometry"/>
                </mxCell>
                <mxCell id="Zg-76G46qRlVFNl99UCE-61" value="" style="verticalLabelPosition=bottom;html=1;verticalAlign=top;align=center;shape=mxgraph.floorplan.office_chair;shadow=0;direction=north;" vertex="1" parent="Zg-76G46qRlVFNl99UCE-1">
                    <mxGeometry x="545" y="460" width="43" height="40" as="geometry"/>
                </mxCell>
                <mxCell id="Zg-76G46qRlVFNl99UCE-62" value="" style="verticalLabelPosition=bottom;html=1;verticalAlign=top;align=center;shape=mxgraph.floorplan.office_chair;shadow=0;direction=south" vertex="1" parent="Zg-76G46qRlVFNl99UCE-1">
                    <mxGeometry x="642" y="460" width="43" height="40" as="geometry"/>
                </mxCell>
                <mxCell id="Zg-76G46qRlVFNl99UCE-63" value="" style="shape=rect;shadow=0;" vertex="1" parent="Zg-76G46qRlVFNl99UCE-1">
                    <mxGeometry x="565" y="430" width="100" height="100" as="geometry"/>
                </mxCell>
                <mxCell id="Zg-76G46qRlVFNl99UCE-65" value="" style="verticalLabelPosition=bottom;html=1;verticalAlign=top;align=center;shape=mxgraph.floorplan.desk_corner;" vertex="1" parent="Zg-76G46qRlVFNl99UCE-1">
                    <mxGeometry x="530" y="220" width="70" height="50" as="geometry"/>
                </mxCell>
                <mxCell id="Zg-76G46qRlVFNl99UCE-66" value="" style="verticalLabelPosition=bottom;html=1;verticalAlign=top;align=center;shape=mxgraph.floorplan.desk_corner;rotation=90;" vertex="1" parent="Zg-76G46qRlVFNl99UCE-1">
                    <mxGeometry x="643" y="208" width="46" height="68" as="geometry"/>
                </mxCell>
                <mxCell id="Zg-76G46qRlVFNl99UCE-67" value="" style="verticalLabelPosition=bottom;html=1;verticalAlign=top;align=center;shape=mxgraph.floorplan.desk_corner;rotation=-180;" vertex="1" parent="Zg-76G46qRlVFNl99UCE-1">
                    <mxGeometry x="632" y="263" width="68" height="57" as="geometry"/>
                </mxCell>
                <mxCell id="Zg-76G46qRlVFNl99UCE-97" value="" style="verticalLabelPosition=bottom;html=1;verticalAlign=top;align=center;shape=mxgraph.floorplan.office_chair;shadow=0;direction=west;rotation=90;" vertex="1" parent="Zg-76G46qRlVFNl99UCE-1">
                    <mxGeometry x="174.5" y="410" width="25" height="23" as="geometry"/>
                </mxCell>
                <mxCell id="Zg-76G46qRlVFNl99UCE-99" value="" style="verticalLabelPosition=bottom;html=1;verticalAlign=top;align=center;shape=mxgraph.floorplan.office_chair;shadow=0;direction=west;rotation=90;" vertex="1" parent="Zg-76G46qRlVFNl99UCE-1">
                    <mxGeometry x="174.5" y="444.5" width="25" height="23" as="geometry"/>
                </mxCell>
                <mxCell id="Zg-76G46qRlVFNl99UCE-100" value="" style="verticalLabelPosition=bottom;html=1;verticalAlign=top;align=center;shape=mxgraph.floorplan.office_chair;shadow=0;direction=west;rotation=90;" vertex="1" parent="Zg-76G46qRlVFNl99UCE-1">
                    <mxGeometry x="174.5" y="477" width="25" height="23" as="geometry"/>
                </mxCell>
                <mxCell id="Zg-76G46qRlVFNl99UCE-101" value="" style="verticalLabelPosition=bottom;html=1;verticalAlign=top;align=center;shape=mxgraph.floorplan.office_chair;shadow=0;direction=west;rotation=90;" vertex="1" parent="Zg-76G46qRlVFNl99UCE-1">
                    <mxGeometry x="174.5" y="507" width="25" height="23" as="geometry"/>
                </mxCell>
                <mxCell id="Zg-76G46qRlVFNl99UCE-102" value="" style="verticalLabelPosition=bottom;html=1;verticalAlign=top;align=center;shape=mxgraph.floorplan.office_chair;shadow=0;direction=west;rotation=-90;" vertex="1" parent="Zg-76G46qRlVFNl99UCE-1">
                    <mxGeometry x="137" y="410" width="25" height="23" as="geometry"/>
                </mxCell>
                <mxCell id="Zg-76G46qRlVFNl99UCE-106" value="" style="verticalLabelPosition=bottom;html=1;verticalAlign=top;align=center;shape=mxgraph.floorplan.office_chair;shadow=0;direction=west;rotation=-90;" vertex="1" parent="Zg-76G46qRlVFNl99UCE-1">
                    <mxGeometry x="137" y="444.5" width="25" height="23" as="geometry"/>
                </mxCell>
                <mxCell id="Zg-76G46qRlVFNl99UCE-107" value="" style="verticalLabelPosition=bottom;html=1;verticalAlign=top;align=center;shape=mxgraph.floorplan.office_chair;shadow=0;direction=west;rotation=-90;" vertex="1" parent="Zg-76G46qRlVFNl99UCE-1">
                    <mxGeometry x="137" y="477" width="25" height="23" as="geometry"/>
                </mxCell>
                <mxCell id="Zg-76G46qRlVFNl99UCE-108" value="" style="verticalLabelPosition=bottom;html=1;verticalAlign=top;align=center;shape=mxgraph.floorplan.office_chair;shadow=0;direction=west;rotation=-90;" vertex="1" parent="Zg-76G46qRlVFNl99UCE-1">
                    <mxGeometry x="137" y="507" width="25" height="23" as="geometry"/>
                </mxCell>
                <mxCell id="Zg-76G46qRlVFNl99UCE-109" value="" style="verticalLabelPosition=bottom;html=1;verticalAlign=top;align=center;shape=mxgraph.floorplan.office_chair;shadow=0;direction=west;rotation=-90;" vertex="1" parent="Zg-76G46qRlVFNl99UCE-1">
                    <mxGeometry x="137" y="410" width="25" height="23" as="geometry"/>
                </mxCell>
                <mxCell id="Zg-76G46qRlVFNl99UCE-110" value="" style="verticalLabelPosition=bottom;html=1;verticalAlign=top;align=center;shape=mxgraph.floorplan.office_chair;shadow=0;direction=west;rotation=90;" vertex="1" parent="Zg-76G46qRlVFNl99UCE-1">
                    <mxGeometry x="174.5" y="410" width="25" height="23" as="geometry"/>
                </mxCell>
                <mxCell id="Zg-76G46qRlVFNl99UCE-111" value="" style="verticalLabelPosition=bottom;html=1;verticalAlign=top;align=center;shape=mxgraph.floorplan.office_chair;shadow=0;direction=west;rotation=-90;" vertex="1" parent="Zg-76G46qRlVFNl99UCE-1">
                    <mxGeometry x="137" y="410" width="25" height="23" as="geometry"/>
                </mxCell>
                <mxCell id="Zg-76G46qRlVFNl99UCE-112" value="" style="verticalLabelPosition=bottom;html=1;verticalAlign=top;align=center;shape=mxgraph.floorplan.office_chair;shadow=0;direction=west;rotation=90;" vertex="1" parent="Zg-76G46qRlVFNl99UCE-1">
                    <mxGeometry x="174.5" y="410" width="25" height="23" as="geometry"/>
                </mxCell>
                <mxCell id="Zg-76G46qRlVFNl99UCE-113" value="" style="verticalLabelPosition=bottom;html=1;verticalAlign=top;align=center;shape=mxgraph.floorplan.office_chair;shadow=0;direction=west;rotation=-90;" vertex="1" parent="Zg-76G46qRlVFNl99UCE-1">
                    <mxGeometry x="137" y="444.5" width="25" height="23" as="geometry"/>
                </mxCell>
                <mxCell id="Zg-76G46qRlVFNl99UCE-114" value="" style="verticalLabelPosition=bottom;html=1;verticalAlign=top;align=center;shape=mxgraph.floorplan.office_chair;shadow=0;direction=west;rotation=-90;" vertex="1" parent="Zg-76G46qRlVFNl99UCE-1">
                    <mxGeometry x="137" y="410" width="25" height="23" as="geometry"/>
                </mxCell>
                <mxCell id="Zg-76G46qRlVFNl99UCE-115" value="" style="verticalLabelPosition=bottom;html=1;verticalAlign=top;align=center;shape=mxgraph.floorplan.office_chair;shadow=0;direction=west;rotation=90;" vertex="1" parent="Zg-76G46qRlVFNl99UCE-1">
                    <mxGeometry x="174.5" y="410" width="25" height="23" as="geometry"/>
                </mxCell>
                <mxCell id="Zg-76G46qRlVFNl99UCE-116" value="" style="verticalLabelPosition=bottom;html=1;verticalAlign=top;align=center;shape=mxgraph.floorplan.office_chair;shadow=0;direction=west;rotation=-90;" vertex="1" parent="Zg-76G46qRlVFNl99UCE-1">
                    <mxGeometry x="137" y="444.5" width="25" height="23" as="geometry"/>
                </mxCell>
                <mxCell id="Zg-76G46qRlVFNl99UCE-117" value="" style="verticalLabelPosition=bottom;html=1;verticalAlign=top;align=center;shape=mxgraph.floorplan.office_chair;shadow=0;direction=west;rotation=-90;" vertex="1" parent="Zg-76G46qRlVFNl99UCE-1">
                    <mxGeometry x="137" y="477" width="25" height="23" as="geometry"/>
                </mxCell>
                <mxCell id="Zg-76G46qRlVFNl99UCE-118" value="" style="verticalLabelPosition=bottom;html=1;verticalAlign=top;align=center;shape=mxgraph.floorplan.office_chair;shadow=0;direction=west;rotation=-90;" vertex="1" parent="Zg-76G46qRlVFNl99UCE-1">
                    <mxGeometry x="137" y="507" width="25" height="23" as="geometry"/>
                </mxCell>
                <mxCell id="Zg-76G46qRlVFNl99UCE-119" value="" style="verticalLabelPosition=bottom;html=1;verticalAlign=top;align=center;shape=mxgraph.floorplan.office_chair;shadow=0;direction=west;rotation=-90;" vertex="1" parent="Zg-76G46qRlVFNl99UCE-1">
                    <mxGeometry x="137" y="410" width="25" height="23" as="geometry"/>
                </mxCell>
                <mxCell id="Zg-76G46qRlVFNl99UCE-120" value="" style="verticalLabelPosition=bottom;html=1;verticalAlign=top;align=center;shape=mxgraph.floorplan.office_chair;shadow=0;direction=west;rotation=90;" vertex="1" parent="Zg-76G46qRlVFNl99UCE-1">
                    <mxGeometry x="174.5" y="410" width="25" height="23" as="geometry"/>
                </mxCell>
                <mxCell id="Zg-76G46qRlVFNl99UCE-121" value="" style="verticalLabelPosition=bottom;html=1;verticalAlign=top;align=center;shape=mxgraph.floorplan.office_chair;shadow=0;direction=west;rotation=-90;" vertex="1" parent="Zg-76G46qRlVFNl99UCE-1">
                    <mxGeometry x="137" y="444.5" width="25" height="23" as="geometry"/>
                </mxCell>
                <mxCell id="Zg-76G46qRlVFNl99UCE-122" value="" style="verticalLabelPosition=bottom;html=1;verticalAlign=top;align=center;shape=mxgraph.floorplan.office_chair;shadow=0;direction=west;rotation=-90;" vertex="1" parent="Zg-76G46qRlVFNl99UCE-1">
                    <mxGeometry x="137" y="477" width="25" height="23" as="geometry"/>
                </mxCell>
                <mxCell id="Zg-76G46qRlVFNl99UCE-123" value="" style="verticalLabelPosition=bottom;html=1;verticalAlign=top;align=center;shape=mxgraph.floorplan.office_chair;shadow=0;direction=west;rotation=-90;" vertex="1" parent="Zg-76G46qRlVFNl99UCE-1">
                    <mxGeometry x="137" y="507" width="25" height="23" as="geometry"/>
                </mxCell>
                <mxCell id="Zg-76G46qRlVFNl99UCE-124" value="" style="verticalLabelPosition=bottom;html=1;verticalAlign=top;align=center;shape=mxgraph.floorplan.office_chair;shadow=0;direction=west;rotation=90;" vertex="1" parent="Zg-76G46qRlVFNl99UCE-1">
                    <mxGeometry x="174.5" y="477" width="25" height="23" as="geometry"/>
                </mxCell>
                <mxCell id="Zg-76G46qRlVFNl99UCE-98" value="" style="shape=rect;shadow=0;" vertex="1" parent="Zg-76G46qRlVFNl99UCE-1">
                    <mxGeometry x="150" y="400" width="35" height="147" as="geometry"/>
                </mxCell>
                <mxCell id="Zg-76G46qRlVFNl99UCE-127" value="" style="verticalLabelPosition=bottom;html=1;verticalAlign=top;align=center;shape=mxgraph.floorplan.office_chair;shadow=0;direction=west;rotation=-90;" vertex="1" parent="Zg-76G46qRlVFNl99UCE-1">
                    <mxGeometry x="137" y="410" width="25" height="23" as="geometry"/>
                </mxCell>
                <mxCell id="Zg-76G46qRlVFNl99UCE-128" value="" style="verticalLabelPosition=bottom;html=1;verticalAlign=top;align=center;shape=mxgraph.floorplan.office_chair;shadow=0;direction=west;rotation=90;" vertex="1" parent="Zg-76G46qRlVFNl99UCE-1">
                    <mxGeometry x="174.5" y="410" width="25" height="23" as="geometry"/>
                </mxCell>
                <mxCell id="Zg-76G46qRlVFNl99UCE-129" value="" style="verticalLabelPosition=bottom;html=1;verticalAlign=top;align=center;shape=mxgraph.floorplan.office_chair;shadow=0;direction=west;rotation=90;" vertex="1" parent="Zg-76G46qRlVFNl99UCE-1">
                    <mxGeometry x="174.5" y="444.5" width="25" height="23" as="geometry"/>
                </mxCell>
                <mxCell id="Zg-76G46qRlVFNl99UCE-130" value="" style="verticalLabelPosition=bottom;html=1;verticalAlign=top;align=center;shape=mxgraph.floorplan.office_chair;shadow=0;direction=west;rotation=-90;" vertex="1" parent="Zg-76G46qRlVFNl99UCE-1">
                    <mxGeometry x="137" y="444.5" width="25" height="23" as="geometry"/>
                </mxCell>
                <mxCell id="Zg-76G46qRlVFNl99UCE-131" value="" style="verticalLabelPosition=bottom;html=1;verticalAlign=top;align=center;shape=mxgraph.floorplan.office_chair;shadow=0;direction=west;rotation=-90;" vertex="1" parent="Zg-76G46qRlVFNl99UCE-1">
                    <mxGeometry x="137" y="477" width="25" height="23" as="geometry"/>
                </mxCell>
                <mxCell id="Zg-76G46qRlVFNl99UCE-132" value="" style="verticalLabelPosition=bottom;html=1;verticalAlign=top;align=center;shape=mxgraph.floorplan.office_chair;shadow=0;direction=west;rotation=90;" vertex="1" parent="Zg-76G46qRlVFNl99UCE-1">
                    <mxGeometry x="255.25" y="507" width="25" height="23" as="geometry"/>
                </mxCell>
                <mxCell id="Zg-76G46qRlVFNl99UCE-133" value="" style="verticalLabelPosition=bottom;html=1;verticalAlign=top;align=center;shape=mxgraph.floorplan.office_chair;shadow=0;direction=west;rotation=-90;" vertex="1" parent="Zg-76G46qRlVFNl99UCE-1">
                    <mxGeometry x="217.75" y="507" width="25" height="23" as="geometry"/>
                </mxCell>
                <mxCell id="Zg-76G46qRlVFNl99UCE-135" value="" style="verticalLabelPosition=bottom;html=1;verticalAlign=top;align=center;shape=mxgraph.floorplan.office_chair;shadow=0;direction=west;rotation=-90;" vertex="1" parent="Zg-76G46qRlVFNl99UCE-1">
                    <mxGeometry x="217.75" y="410" width="25" height="23" as="geometry"/>
                </mxCell>
                <mxCell id="Zg-76G46qRlVFNl99UCE-136" value="" style="verticalLabelPosition=bottom;html=1;verticalAlign=top;align=center;shape=mxgraph.floorplan.office_chair;shadow=0;direction=west;rotation=90;" vertex="1" parent="Zg-76G46qRlVFNl99UCE-1">
                    <mxGeometry x="255.25" y="410" width="25" height="23" as="geometry"/>
                </mxCell>
                <mxCell id="Zg-76G46qRlVFNl99UCE-137" value="" style="verticalLabelPosition=bottom;html=1;verticalAlign=top;align=center;shape=mxgraph.floorplan.office_chair;shadow=0;direction=west;rotation=90;" vertex="1" parent="Zg-76G46qRlVFNl99UCE-1">
                    <mxGeometry x="255.25" y="444.5" width="25" height="23" as="geometry"/>
                </mxCell>
                <mxCell id="Zg-76G46qRlVFNl99UCE-138" value="" style="verticalLabelPosition=bottom;html=1;verticalAlign=top;align=center;shape=mxgraph.floorplan.office_chair;shadow=0;direction=west;rotation=-90;" vertex="1" parent="Zg-76G46qRlVFNl99UCE-1">
                    <mxGeometry x="217.75" y="444.5" width="25" height="23" as="geometry"/>
                </mxCell>
                <mxCell id="Zg-76G46qRlVFNl99UCE-139" value="" style="verticalLabelPosition=bottom;html=1;verticalAlign=top;align=center;shape=mxgraph.floorplan.office_chair;shadow=0;direction=west;rotation=-90;" vertex="1" parent="Zg-76G46qRlVFNl99UCE-1">
                    <mxGeometry x="217.75" y="477" width="25" height="23" as="geometry"/>
                </mxCell>
                <mxCell id="Zg-76G46qRlVFNl99UCE-126" value="" style="shape=rect;shadow=0;" vertex="1" parent="Zg-76G46qRlVFNl99UCE-1">
                    <mxGeometry x="150" y="400" width="35" height="147" as="geometry"/>
                </mxCell>
                <mxCell id="Zg-76G46qRlVFNl99UCE-140" value="" style="verticalLabelPosition=bottom;html=1;verticalAlign=top;align=center;shape=mxgraph.floorplan.office_chair;shadow=0;direction=west;rotation=90;" vertex="1" parent="Zg-76G46qRlVFNl99UCE-1">
                    <mxGeometry x="255.25" y="477" width="25" height="23" as="geometry"/>
                </mxCell>
                <mxCell id="Zg-76G46qRlVFNl99UCE-134" value="" style="shape=rect;shadow=0;" vertex="1" parent="Zg-76G46qRlVFNl99UCE-1">
                    <mxGeometry x="230.75" y="400" width="35" height="147" as="geometry"/>
                </mxCell>
                <mxCell id="Zg-76G46qRlVFNl99UCE-145" value="" style="verticalLabelPosition=bottom;html=1;verticalAlign=top;align=center;shape=mxgraph.floorplan.couch;" vertex="1" parent="Zg-76G46qRlVFNl99UCE-1">
                    <mxGeometry x="390" y="220" width="130" height="40" as="geometry"/>
                </mxCell>
                <mxCell id="Zg-76G46qRlVFNl99UCE-146" value="" style="verticalLabelPosition=bottom;html=1;verticalAlign=top;align=center;shape=mxgraph.floorplan.plant;" vertex="1" parent="Zg-76G46qRlVFNl99UCE-1">
                    <mxGeometry x="670" y="320" width="15" height="20" as="geometry"/>
                </mxCell>
                <mxCell id="Zg-76G46qRlVFNl99UCE-147" value="" style="verticalLabelPosition=bottom;html=1;verticalAlign=top;align=center;shape=mxgraph.floorplan.plant;" vertex="1" parent="Zg-76G46qRlVFNl99UCE-1">
                    <mxGeometry x="674" y="360" width="15" height="20" as="geometry"/>
                </mxCell>
                <mxCell id="Zg-76G46qRlVFNl99UCE-150" value="" style="verticalLabelPosition=bottom;html=1;verticalAlign=top;align=center;shape=mxgraph.floorplan.plant;" vertex="1" parent="Zg-76G46qRlVFNl99UCE-1">
                    <mxGeometry x="674" y="390" width="15" height="20" as="geometry"/>
                </mxCell>
                <mxCell id="Zg-76G46qRlVFNl99UCE-151" value="" style="verticalLabelPosition=bottom;html=1;verticalAlign=top;align=center;shape=mxgraph.floorplan.plant;" vertex="1" parent="Zg-76G46qRlVFNl99UCE-1">
                    <mxGeometry x="674" y="545" width="15" height="20" as="geometry"/>
                </mxCell>
                <mxCell id="Zg-76G46qRlVFNl99UCE-152" value="" style="verticalLabelPosition=bottom;html=1;verticalAlign=top;align=center;shape=mxgraph.floorplan.plant;" vertex="1" parent="Zg-76G46qRlVFNl99UCE-1">
                    <mxGeometry x="540" y="547" width="15" height="20" as="geometry"/>
                </mxCell>
                <mxCell id="Zg-76G46qRlVFNl99UCE-153" value="" style="verticalLabelPosition=bottom;html=1;verticalAlign=top;align=center;shape=mxgraph.floorplan.plant;" vertex="1" parent="Zg-76G46qRlVFNl99UCE-1">
                    <mxGeometry x="540" y="385" width="15" height="20" as="geometry"/>
                </mxCell>
                <mxCell id="Zg-76G46qRlVFNl99UCE-154" value="" style="verticalLabelPosition=bottom;html=1;verticalAlign=top;align=center;shape=mxgraph.floorplan.plant;" vertex="1" parent="Zg-76G46qRlVFNl99UCE-1">
                    <mxGeometry x="497" y="390" width="15" height="20" as="geometry"/>
                </mxCell>
                <mxCell id="Zg-76G46qRlVFNl99UCE-155" value="" style="verticalLabelPosition=bottom;html=1;verticalAlign=top;align=center;shape=mxgraph.floorplan.plant;" vertex="1" parent="Zg-76G46qRlVFNl99UCE-1">
                    <mxGeometry x="497" y="539" width="15" height="20" as="geometry"/>
                </mxCell>
                <mxCell id="Zg-76G46qRlVFNl99UCE-156" value="" style="verticalLabelPosition=bottom;html=1;verticalAlign=top;align=center;shape=mxgraph.floorplan.plant;" vertex="1" parent="Zg-76G46qRlVFNl99UCE-1">
                    <mxGeometry x="363" y="390" width="15" height="20" as="geometry"/>
                </mxCell>
                <mxCell id="Zg-76G46qRlVFNl99UCE-157" value="" style="verticalLabelPosition=bottom;html=1;verticalAlign=top;align=center;shape=mxgraph.floorplan.plant;" vertex="1" parent="Zg-76G46qRlVFNl99UCE-1">
                    <mxGeometry x="315" y="545" width="15" height="20" as="geometry"/>
                </mxCell>
                <mxCell id="Zg-76G46qRlVFNl99UCE-158" value="" style="verticalLabelPosition=bottom;html=1;verticalAlign=top;align=center;shape=mxgraph.floorplan.plant;" vertex="1" parent="Zg-76G46qRlVFNl99UCE-1">
                    <mxGeometry x="280.25" y="545" width="15" height="20" as="geometry"/>
                </mxCell>
                <mxCell id="Zg-76G46qRlVFNl99UCE-159" value="" style="verticalLabelPosition=bottom;html=1;verticalAlign=top;align=center;shape=mxgraph.floorplan.plant;" vertex="1" parent="Zg-76G46qRlVFNl99UCE-1">
                    <mxGeometry x="280.25" y="390" width="15" height="20" as="geometry"/>
                </mxCell>
                <mxCell id="Zg-76G46qRlVFNl99UCE-160" value="" style="verticalLabelPosition=bottom;html=1;verticalAlign=top;align=center;shape=mxgraph.floorplan.plant;" vertex="1" parent="Zg-76G46qRlVFNl99UCE-1">
                    <mxGeometry x="122" y="550" width="15" height="20" as="geometry"/>
                </mxCell>
                <mxCell id="Zg-76G46qRlVFNl99UCE-161" value="" style="verticalLabelPosition=bottom;html=1;verticalAlign=top;align=center;shape=mxgraph.floorplan.plant;" vertex="1" parent="Zg-76G46qRlVFNl99UCE-1">
                    <mxGeometry x="122" y="385" width="15" height="20" as="geometry"/>
                </mxCell>
                <mxCell id="Zg-76G46qRlVFNl99UCE-162" value="" style="verticalLabelPosition=bottom;html=1;verticalAlign=top;align=center;shape=mxgraph.floorplan.plant;" vertex="1" parent="Zg-76G46qRlVFNl99UCE-1">
                    <mxGeometry x="122" y="220" width="15" height="20" as="geometry"/>
                </mxCell>
                <mxCell id="Zg-76G46qRlVFNl99UCE-163" value="" style="verticalLabelPosition=bottom;html=1;verticalAlign=top;align=center;shape=mxgraph.floorplan.plant;" vertex="1" parent="Zg-76G46qRlVFNl99UCE-1">
                    <mxGeometry x="122" y="255" width="15" height="20" as="geometry"/>
                </mxCell>
                <mxCell id="Zg-76G46qRlVFNl99UCE-164" value="" style="verticalLabelPosition=bottom;html=1;verticalAlign=top;align=center;shape=mxgraph.floorplan.plant;" vertex="1" parent="Zg-76G46qRlVFNl99UCE-1">
                    <mxGeometry x="122" y="290" width="15" height="20" as="geometry"/>
                </mxCell>
                <mxCell id="Zg-76G46qRlVFNl99UCE-165" value="" style="verticalLabelPosition=bottom;html=1;verticalAlign=top;align=center;shape=mxgraph.floorplan.plant;" vertex="1" parent="Zg-76G46qRlVFNl99UCE-1">
                    <mxGeometry x="120" y="330" width="15" height="20" as="geometry"/>
                </mxCell>
                <mxCell id="Zg-76G46qRlVFNl99UCE-166" value="" style="verticalLabelPosition=bottom;html=1;verticalAlign=top;align=center;shape=mxgraph.floorplan.plant;" vertex="1" parent="Zg-76G46qRlVFNl99UCE-1">
                    <mxGeometry x="222.75" y="220" width="15" height="20" as="geometry"/>
                </mxCell>
                <mxCell id="Zg-76G46qRlVFNl99UCE-167" value="" style="verticalLabelPosition=bottom;html=1;verticalAlign=top;align=center;shape=mxgraph.floorplan.plant;" vertex="1" parent="Zg-76G46qRlVFNl99UCE-1">
                    <mxGeometry x="222.75" y="258" width="15" height="20" as="geometry"/>
                </mxCell>
                <mxCell id="Zg-76G46qRlVFNl99UCE-168" value="" style="verticalLabelPosition=bottom;html=1;verticalAlign=top;align=center;shape=mxgraph.floorplan.plant;" vertex="1" parent="Zg-76G46qRlVFNl99UCE-1">
                    <mxGeometry x="222.75" y="295" width="15" height="20" as="geometry"/>
                </mxCell>
                <mxCell id="Zg-76G46qRlVFNl99UCE-169" value="" style="verticalLabelPosition=bottom;html=1;verticalAlign=top;align=center;shape=mxgraph.floorplan.plant;" vertex="1" parent="Zg-76G46qRlVFNl99UCE-1">
                    <mxGeometry x="260.25" y="220" width="15" height="20" as="geometry"/>
                </mxCell>
                <mxCell id="Zg-76G46qRlVFNl99UCE-170" value="" style="verticalLabelPosition=bottom;html=1;verticalAlign=top;align=center;shape=mxgraph.floorplan.plant;" vertex="1" parent="Zg-76G46qRlVFNl99UCE-1">
                    <mxGeometry x="363" y="220" width="15" height="20" as="geometry"/>
                </mxCell>
                <mxCell id="Zg-76G46qRlVFNl99UCE-171" value="" style="verticalLabelPosition=bottom;html=1;verticalAlign=top;align=center;shape=mxgraph.floorplan.plant;" vertex="1" parent="Zg-76G46qRlVFNl99UCE-1">
                    <mxGeometry x="497" y="290" width="15" height="20" as="geometry"/>
                </mxCell>
                <mxCell id="Zg-76G46qRlVFNl99UCE-172" value="" style="verticalLabelPosition=bottom;html=1;verticalAlign=top;align=center;shape=mxgraph.floorplan.plant;" vertex="1" parent="Zg-76G46qRlVFNl99UCE-1">
                    <mxGeometry x="393" y="290" width="15" height="20" as="geometry"/>
                </mxCell>
                <mxCell id="Zg-76G46qRlVFNl99UCE-173" value="" style="verticalLabelPosition=bottom;html=1;verticalAlign=top;align=center;shape=mxgraph.floorplan.plant;" vertex="1" parent="Zg-76G46qRlVFNl99UCE-1">
                    <mxGeometry x="607.5" y="220" width="15" height="20" as="geometry"/>
                </mxCell>
                <mxCell id="Zg-76G46qRlVFNl99UCE-174" value="" style="verticalLabelPosition=bottom;html=1;verticalAlign=top;align=center;shape=mxgraph.floorplan.plant;" vertex="1" parent="Zg-76G46qRlVFNl99UCE-1">
                    <mxGeometry x="530" y="300" width="15" height="20" as="geometry"/>
                </mxCell>
            </root>
        </mxGraphModel>
    </diagram>
</mxfile>